HIERARCHY
ROOT reference
{
  OFFSET 0 0 0
  CHANNELS 6 Xposition Yposition Zposition Zrotation Xrotation Yrotation
  JOINT Hips
  {
    OFFSET 20.4636 75.887 70.7747
    CHANNELS 6 Xposition Yposition Zposition Zrotation Xrotation Yrotation
    JOINT Spine
    {
      OFFSET 0 7.81434 0
      CHANNELS 6 Xposition Yposition Zposition Zrotation Xrotation Yrotation
      JOINT Spine1
      {
        OFFSET 0 23.3781 0
        CHANNELS 6 Xposition Yposition Zposition Zrotation Xrotation Yrotation
        JOINT Neck
        {
          OFFSET 0 23.2821 2.11656
          CHANNELS 6 Xposition Yposition Zposition Zrotation Xrotation Yrotation
          JOINT Head
          {
            OFFSET 0 13.3416 -1.90594
            CHANNELS 6 Xposition Yposition Zposition Zrotation Xrotation Yrotation
            End Site
            {
              OFFSET 0 23.8242 0
            }
          }
        }
        JOINT LeftShoulder
        {
          OFFSET 3.82472 21.4916 -0.175476
          CHANNELS 6 Xposition Yposition Zposition Zrotation Xrotation Yrotation
          JOINT LeftArm
          {
            OFFSET 10.8239 0 0
            CHANNELS 6 Xposition Yposition Zposition Zrotation Xrotation Yrotation
            JOINT LeftForeArm
            {
              OFFSET 28.5356 0 0
              CHANNELS 6 Xposition Yposition Zposition Zrotation Xrotation Yrotation
              JOINT LeftHand
              {
                OFFSET 24.5315 0 0
                CHANNELS 6 Xposition Yposition Zposition Zrotation Xrotation Yrotation
                End Site
                {
                  OFFSET 14.2945 0 0
                }
              }
            }
          }
        }
        JOINT RightShoulder
        {
          OFFSET -3.77033 21.4916 -0.175476
          CHANNELS 6 Xposition Yposition Zposition Zrotation Xrotation Yrotation
          JOINT RightArm
          {
            OFFSET -10.8239 0 0
            CHANNELS 6 Xposition Yposition Zposition Zrotation Xrotation Yrotation
            JOINT RightForeArm
            {
              OFFSET -28.5356 0 0
              CHANNELS 6 Xposition Yposition Zposition Zrotation Xrotation Yrotation
              JOINT RightHand
              {
                OFFSET -24.5315 0 0
                CHANNELS 6 Xposition Yposition Zposition Zrotation Xrotation Yrotation
                End Site
                {
                  OFFSET -14.2945 0 0
                }
              }
            }
          }
        }
      }
    }
    JOINT LeftUpLeg
    {
      OFFSET 9.52968 0 0
      CHANNELS 6 Xposition Yposition Zposition Zrotation Xrotation Yrotation
      JOINT LeftLeg
      {
        OFFSET 0 -40.1884 0
        CHANNELS 6 Xposition Yposition Zposition Zrotation Xrotation Yrotation
        JOINT LeftFoot
        {
          OFFSET 0 -39.9954 0
          CHANNELS 6 Xposition Yposition Zposition Zrotation Xrotation Yrotation
          JOINT LeftToeBase
          {
            OFFSET 0 -6.19429 14.2945
            CHANNELS 6 Xposition Yposition Zposition Zrotation Xrotation Yrotation
            End Site
            {
              OFFSET 0 0 3.81187
            }
          }
        }
      }
    }
    JOINT RightUpLeg
    {
      OFFSET -9.52968 0 0
      CHANNELS 6 Xposition Yposition Zposition Zrotation Xrotation Yrotation
      JOINT RightLeg
      {
        OFFSET 0 -40.1884 0
        CHANNELS 6 Xposition Yposition Zposition Zrotation Xrotation Yrotation
        JOINT RightFoot
        {
          OFFSET 0 -39.9954 0
          CHANNELS 6 Xposition Yposition Zposition Zrotation Xrotation Yrotation
          JOINT RightToeBase
          {
            OFFSET 0 -6.19429 14.2945
            CHANNELS 6 Xposition Yposition Zposition Zrotation Xrotation Yrotation
            End Site
            {
              OFFSET 0 0 3.81187
            }
          }
        }
      }
    }
  }
}
MOTION
Frames:	4
Frame Time:	0.004
0 0 0 0 0 -0 -3.32997 78.8313 -106.732 4.03406 -1.56982 -4.42383 -1.77636e-015 7.81434 0 5.70482 1.00341 8.75569 0 23.3781 0 -21.3547 -1.87424 8.45217 0 23.2821 2.11656 -5.97801 25.4993 -0.430896 3.55271e-015 13.3416 -1.90594 15.3811 3.25481 0.792552 3.82472 21.4916 -0.175476 -22.0637 16.107 20.9935 10.8239 -1.42109e-014 0 -37.523 20.5234 -11.0317 28.5356 -7.10543e-015 0 1.36539 -9.65318 -11.1839 24.5315 0 0 4.40565 -9.68887 -4.42413 -3.77033 21.4916 -0.175476 4.43267 24.9583 5.10581 -10.8239 2.84217e-014 0 38.3812 26.1039 26.6697 -28.5356 -1.42109e-014 0 -6.44061 -8.63973 27.1741 -24.5315 0 0 -9.09714 -7.50645 5.19513 9.52968 -1.42109e-014 1.42109e-014 8.28744 -22.8405 1.58841 -3.55271e-015 -40.1884 0 -2.22355 16.4887 5.71123 0 -39.9954 0 -1.88758 -2.7731 4.65704 0 -6.19429 14.2945 -1.59028e-015 0 -1.59028e-015 -9.52968 -1.42109e-014 0 -14.0156 19.6485 0.830513 0 -40.1884 0 -0.025265 5.76072 2.14599 0 -39.9954 1.42109e-014 0.133482 -25.0715 -2.008 0 -6.19429 14.2945 9.48886e-016 7.45443e-017 7.95139e-016 
0 0 0 0 0 -0 -3.07777 78.8854 -106.357 4.29582 -1.54222 -4.27065 1.77636e-015 7.81434 0 5.57503 1.02817 8.79895 -3.55271e-015 23.3781 0 -21.5148 -1.88049 8.49159 0 23.2821 2.11656 -6.21624 25.5265 -0.546745 -1.06581e-014 13.3416 -1.90594 15.803 3.28664 0.693702 3.82472 21.4916 -0.175476 -22.2116 16.1674 20.9765 10.8239 1.42109e-014 2.84217e-014 -37.5047 20.7001 -11.0021 28.5356 0 0 1.63699 -9.98917 -10.96 24.5315 7.10543e-015 -2.84217e-014 4.06564 -9.9933 -4.55115 -3.77033 21.4916 -0.175476 4.38251 25.1645 4.93808 -10.8239 -1.42109e-014 0 38.5737 25.8272 26.8081 -28.5356 0 0 -6.4902 -8.56591 27.2268 -24.5315 1.42109e-014 0 -9.37026 -7.41698 5.03854 9.52968 0 -1.42109e-014 7.81369 -23.1069 1.54533 -3.55271e-015 -40.1884 0 -2.34922 17.3372 5.32851 3.55271e-015 -39.9954 0 -1.49108 -3.15828 5.09692 3.55271e-015 -6.19429 14.2945 -1.98785e-016 3.18055e-015 -7.95139e-016 -9.52968 -1.42109e-014 0 -14.2828 19.7071 0.714868 0 -40.1884 0 -0.185898 6.09822 1.79672 0 -39.9954 1.42109e-014 0.630346 -24.7051 -1.85687 0 -6.19429 14.2945 -1.24862e-015 0 -0 
0 0 0 0 0 -0 -2.8263 78.9509 -105.971 4.55218 -1.53307 -4.12157 0 7.81434 0 5.48926 1.04673 8.82662 -3.55271e-015 23.3781 0 -21.8247 -1.87094 8.51595 3.55271e-015 23.2821 2.11656 -6.18259 25.5525 -0.650482 -3.55271e-015 13.3416 -1.90594 16.0581 3.28983 0.6164 3.82472 21.4916 -0.175476 -22.2434 16.2522 21.0058 10.8239 -1.42109e-014 0 -37.5103 20.7374 -11.0336 28.5356 0 0 1.77789 -10.3425 -10.7191 24.5315 7.10543e-015 0 3.75235 -10.3263 -4.59688 -3.77033 21.4916 -0.175476 4.46446 25.2357 4.87039 -10.8239 0 0 38.7592 25.7856 26.7908 -28.5356 1.42109e-014 0 -6.69029 -8.61833 27.21 -24.5315 0 0 -9.45865 -7.42434 5.01529 9.52968 -1.42109e-014 0 7.28339 -23.2782 1.60156 -3.55271e-015 -40.1884 0 -2.31886 18.0365 4.95285 0 -39.9954 -1.42109e-014 -1.05424 -3.46952 5.24672 -3.55271e-015 -6.19429 14.2945 3.97569e-016 0 -1.59028e-015 -9.52968 0 -1.42109e-014 -14.5643 19.7886 0.689197 0 -40.1884 0 -0.300738 6.42752 1.39338 3.55271e-015 -39.9954 1.42109e-014 1.02196 -24.2963 -1.74255 0 -6.19429 14.2945 -1.3418e-015 3.97569e-016 -7.95139e-016 
0 0 0 0 0 -0 -2.57969 79.0144 -105.586 4.77433 -1.53249 -3.95112 -8.88178e-016 7.81434 1.42109e-014 5.39258 1.08561 8.85188 0 23.3781 -1.42109e-014 -22.0402 -1.85526 8.54156 0 23.2821 2.11656 -6.20648 25.5923 -0.785398 -3.55271e-015 13.3416 -1.90594 16.3076 3.23986 0.507447 3.82472 21.4916 -0.175476 -22.2958 16.3678 21.032 10.8239 0 0 -37.5946 20.8028 -10.9572 28.5356 -3.55271e-015 0 1.84913 -10.7776 -10.8277 24.5315 -7.10543e-015 0 4.3422 -10.7651 -4.29531 -3.77033 21.4916 -0.175476 4.4995 25.2535 4.75226 -10.8239 0 0 38.9709 25.8049 26.7328 -28.5356 -1.42109e-014 1.42109e-014 -6.85297 -8.67885 27.2769 -24.5315 -7.10543e-015 0 -9.66798 -7.43641 4.84382 9.52968 1.42109e-014 0 6.872 -23.4712 1.57483 3.55271e-015 -40.1884 1.42109e-014 -2.48087 18.8136 4.52983 0 -39.9954 0 -0.632075 -3.82245 5.61401 0 -6.19429 14.2945 -2.38542e-015 3.18055e-015 -7.95139e-016 -9.52968 0 0 -14.7638 19.871 0.566631 0 -40.1884 1.42109e-014 -0.490947 6.77508 0.949391 -3.55271e-015 -39.9954 -1.42109e-014 1.16592 -23.7557 -1.55871 0 -6.19429 14.2945 3.72721e-015 3.97569e-016 -0 
